<svg id="SvgjsSvg1001" width="100%" height="100%" xmlns="http://www.w3.org/2000/svg" version="1.1" xlink="http://www.w3.org/1999/xlink" xmlns:svgjs="http://svgjs.com/svgjs" preserveAspectRatio="xMidYMid meet" viewBox="0 0 300 62.671775817871094" overflow="visible"><defs id="SvgjsDefs1002"><linearGradient id="SvgjsLinearGradientUOgiKdQvU" gradientUnits="userSpaceOnUse" x1="4.2632564145606005e-14" y1="99.99999999999997" x2="99.99999999999999" y2="-3.5527136788005e-15"><stop id="SvgjsStop1010" stop-color="#575757" offset="0.05"></stop><stop id="SvgjsStop1011" stop-color="#171717" offset="0.95"></stop></linearGradient></defs><g id="SvgjsG1008" transform="scale(0.6044731009470078)" opacity="1"><g id="SvgjsG1012" class="Vx1KdhE7Jy" transform="translate(0, 0) scale(1.0368)" light-content="false" non-strokable="false" fill="url(#SvgjsLinearGradientUOgiKdQvU)"><path d="M0 0h100v100H0z"></path></g><g id="SvgjsG1013" class="fkn6yfiahO" transform="translate(22.369094230498472, 22.71279408605701) scale(0.5825440960565662)" light-content="true" non-strokable="false" fill="#ffffff"><path d="M99 49.991l-29.087-30.52-19.31 14.999-19.335-15.018L2.18 49.97l32.06 30.558 16.338-13.709 16.363 13.729L99 49.991zM33.814 70.839L11.878 49.931l19.816-20.79 11.571 11.028-12.696 9.861 12.823 10.759-9.578 10.05zm19.815-20.791l-3.049 3.199-3.029-3.179 3.05-2.906 3.028 2.886zm4.31-9.881l11.549-11.006L89.305 49.95l-21.94 20.909-9.6-10.072 12.846-10.778-12.672-9.842z"></path></g><g id="SvgjsG1014" class="text" transform="translate(318.40000122070313, 72.71999954223634) scale(1)" light-content="false" fill="#171717"><path d="M-169.83 -1.44C-167.33 -0.16 -164.44 0.48 -161.16 0.48C-157.88 0.48 -154.99 -0.13 -152.49 -1.35C-149.99 -2.57 -148.05 -4.28 -146.67 -6.48C-145.29 -8.68 -144.6 -11.22 -144.6 -14.1L-144.6 -14.4C-144.6 -14.56 -144.96 -14.66 -145.68 -14.7L-154.68 -15.18C-155.04 -15.22 -155.33 -15.17 -155.55 -15.03C-155.77 -14.89 -155.88 -14.72 -155.88 -14.52C-155.88 -12.92 -156.36 -11.63 -157.32 -10.65C-158.28 -9.67 -159.56 -9.18 -161.16 -9.18C-162.76 -9.18 -164.04 -9.67 -165 -10.65C-165.96 -11.63 -166.44 -12.92 -166.44 -14.52L-166.44 -27.42C-166.44 -29.06 -165.96 -30.37 -165 -31.35C-164.04 -32.33 -162.76 -32.82 -161.16 -32.82C-159.56 -32.82 -158.28 -32.33 -157.32 -31.35C-156.36 -30.37 -155.88 -29.06 -155.88 -27.42L-155.88 -27.06C-155.88 -26.86 -155.58 -26.76 -154.98 -26.76L-154.68 -26.76L-145.68 -27.36C-144.96 -27.44 -144.6 -27.66 -144.6 -28.02C-144.6 -30.9 -145.29 -33.43 -146.67 -35.61C-148.05 -37.79 -149.99 -39.48 -152.49 -40.68C-154.99 -41.88 -157.88 -42.48 -161.16 -42.48C-164.44 -42.48 -167.33 -41.84 -169.83 -40.56C-172.33 -39.28 -174.27 -37.48 -175.65 -35.16C-177.03 -32.84 -177.72 -30.16 -177.72 -27.12L-177.72 -15C-177.72 -11.92 -177.03 -9.21 -175.65 -6.87C-174.27 -4.53 -172.33 -2.72 -169.83 -1.44Z M-121.17 -1.29C-118.63 0.05 -115.7 0.72 -112.38 0.72C-109.02 0.72 -106.07 0.05 -103.53 -1.29C-100.99 -2.63 -99.02 -4.51 -97.62 -6.93C-96.22 -9.35 -95.52 -12.16 -95.52 -15.36L-95.52 -26.64C-95.52 -29.76 -96.22 -32.52 -97.62 -34.92C-99.02 -37.32 -100.99 -39.18 -103.53 -40.5C-106.07 -41.82 -109.02 -42.48 -112.38 -42.48C-115.7 -42.48 -118.63 -41.82 -121.17 -40.5C-123.71 -39.18 -125.68 -37.32 -127.08 -34.92C-128.48 -32.52 -129.18 -29.76 -129.18 -26.64L-129.18 -15.36C-129.18 -12.16 -128.48 -9.35 -127.08 -6.93C-125.68 -4.51 -123.71 -2.63 -121.17 -1.29ZM-108.33 -10.59C-109.35 -9.49 -110.7 -8.94 -112.38 -8.94C-114.02 -8.94 -115.35 -9.49 -116.37 -10.59C-117.39 -11.69 -117.9 -13.16 -117.9 -15L-117.9 -26.76C-117.9 -28.6 -117.39 -30.07 -116.37 -31.17C-115.35 -32.27 -114.02 -32.82 -112.38 -32.82C-110.7 -32.82 -109.35 -32.27 -108.33 -31.17C-107.31 -30.07 -106.8 -28.6 -106.8 -26.76L-106.8 -15C-106.8 -13.16 -107.31 -11.69 -108.33 -10.59Z M-52.02 -21.66C-52.02 -21.78 -51.94 -21.88 -51.78 -21.96C-48.9 -23.68 -47.46 -26.4 -47.46 -30.12C-47.46 -34.4 -48.75 -37.45 -51.33 -39.27C-53.91 -41.09 -57.76 -42 -62.88 -42L-78.24 -42C-79 -42 -79.38 -41.62 -79.38 -40.86L-79.38 -1.14C-79.38 -0.38 -79 0 -78.24 0L-62.34 0C-57.74 0 -54 -0.97 -51.12 -2.91C-48.24 -4.85 -46.8 -7.88 -46.8 -12C-46.8 -14.16 -47.21 -16.01 -48.03 -17.55C-48.85 -19.09 -50.1 -20.36 -51.78 -21.36C-51.94 -21.44 -52.02 -21.54 -52.02 -21.66ZM-68.1 -31.86C-68.1 -32.18 -67.94 -32.34 -67.62 -32.34L-62.88 -32.34C-59.96 -32.34 -58.5 -31.24 -58.5 -29.04C-58.5 -26.84 -59.96 -25.74 -62.88 -25.74L-67.62 -25.74C-67.94 -25.74 -68.1 -25.9 -68.1 -26.22ZM-58.08 -13.2C-58.08 -10.84 -59.5 -9.66 -62.34 -9.66L-67.62 -9.66C-67.94 -9.66 -68.1 -9.82 -68.1 -10.14L-68.1 -16.08C-68.1 -16.4 -67.94 -16.56 -67.62 -16.56L-62.28 -16.56C-59.48 -16.56 -58.08 -15.44 -58.08 -13.2Z M-9.48 -0.84C-9.24 -0.28 -8.8 0 -8.16 0L1.38 0C2.02 0 2.34 -0.24 2.34 -0.72C2.34 -0.96 2.3 -1.16 2.22 -1.32L-5.1 -16.8C-5.22 -17.08 -5.14 -17.28 -4.86 -17.4C-2.62 -18.36 -0.87 -19.82 0.39 -21.78C1.65 -23.74 2.28 -26.02 2.28 -28.62C2.28 -31.26 1.71 -33.59 0.57 -35.61C-0.57 -37.63 -2.17 -39.2 -4.23 -40.32C-6.29 -41.44 -8.68 -42 -11.4 -42L-29.34 -42C-30.1 -42 -30.48 -41.62 -30.48 -40.86L-30.48 -1.14C-30.48 -0.38 -30.1 0 -29.34 0L-20.34 0C-19.58 0 -19.2 -0.38 -19.2 -1.14L-19.2 -15.66C-19.2 -15.98 -19.04 -16.14 -18.72 -16.14L-16.56 -16.14C-16.24 -16.14 -16.04 -16.02 -15.96 -15.78ZM-19.2 -31.86C-19.2 -32.18 -19.04 -32.34 -18.72 -32.34L-13.26 -32.34C-11.98 -32.34 -10.94 -31.99 -10.14 -31.29C-9.34 -30.59 -8.94 -29.66 -8.94 -28.5C-8.94 -27.38 -9.34 -26.47 -10.14 -25.77C-10.94 -25.07 -11.98 -24.72 -13.26 -24.72L-18.72 -24.72C-19.04 -24.72 -19.2 -24.88 -19.2 -25.2Z M45.48 -0.96C45.64 -0.32 46.06 0 46.74 0L56.46 0C57.14 0 57.48 -0.3 57.48 -0.9C57.48 -1.06 57.46 -1.2 57.42 -1.32L44.94 -41.04C44.74 -41.68 44.32 -42 43.68 -42L31.32 -42C30.68 -42 30.26 -41.68 30.06 -41.04L17.58 -1.32C17.46 -0.92 17.49 -0.6 17.67 -0.36C17.85 -0.12 18.14 0 18.54 0L28.26 0C28.94 0 29.36 -0.32 29.52 -0.96L30.72 -5.28C30.8 -5.56 30.98 -5.7 31.26 -5.7L43.74 -5.7C44.02 -5.7 44.2 -5.56 44.28 -5.28ZM33.36 -14.76L33.36 -14.88L37.2 -28.74C37.28 -28.94 37.39 -29.04 37.53 -29.04C37.67 -29.04 37.76 -28.94 37.8 -28.74L41.64 -14.88C41.68 -14.72 41.66 -14.59 41.58 -14.49C41.5 -14.39 41.38 -14.34 41.22 -14.34L33.78 -14.34C33.5 -14.34 33.36 -14.48 33.36 -14.76Z M77.28 -1.17C79.76 -0.07 82.62 0.48 85.86 0.48C89.06 0.48 91.89 -0.05 94.35 -1.11C96.81 -2.17 98.72 -3.68 100.08 -5.64C101.44 -7.6 102.12 -9.88 102.12 -12.48C102.12 -15.24 101.28 -17.59 99.6 -19.53C97.92 -21.47 95.83 -22.81 93.33 -23.55C90.83 -24.29 89.42 -24.72 89.1 -24.84C86.78 -25.56 85.06 -26.15 83.94 -26.61C82.82 -27.07 81.99 -27.55 81.45 -28.05C80.91 -28.55 80.64 -29.16 80.64 -29.88C80.64 -30.8 81.01 -31.52 81.75 -32.04C82.49 -32.56 83.5 -32.82 84.78 -32.82C86.62 -32.82 88.08 -32.33 89.16 -31.35C90.24 -30.37 90.78 -29.28 90.78 -28.08L90.78 -27.6C90.78 -27.28 91.16 -27.12 91.92 -27.12L100.74 -27.12C101.5 -27.12 101.88 -27.5 101.88 -28.26L101.88 -28.56C101.88 -31.28 101.15 -33.7 99.69 -35.82C98.23 -37.94 96.23 -39.58 93.69 -40.74C91.15 -41.9 88.32 -42.48 85.2 -42.48C82.24 -42.48 79.57 -41.96 77.19 -40.92C74.81 -39.88 72.94 -38.39 71.58 -36.45C70.22 -34.51 69.54 -32.28 69.54 -29.76C69.54 -25.96 70.88 -23.06 73.56 -21.06C76.24 -19.06 79.56 -17.46 83.52 -16.26L85.26 -15.78C87.38 -15.14 88.84 -14.6 89.64 -14.16C90.44 -13.72 90.84 -13.06 90.84 -12.18C90.84 -11.42 90.52 -10.73 89.88 -10.11C89.24 -9.49 88.18 -9.18 86.7 -9.18C84.94 -9.18 83.48 -9.62 82.32 -10.5C81.16 -11.38 80.58 -12.36 80.58 -13.44L80.58 -14.1C80.58 -14.5 80.2 -14.7 79.44 -14.7L70.62 -14.7C69.86 -14.7 69.48 -14.32 69.48 -13.56L69.48 -12.96C69.48 -10.28 70.16 -7.92 71.52 -5.88C72.88 -3.84 74.8 -2.27 77.28 -1.17Z M118.08 -1.14C118.08 -0.38 118.46 0 119.22 0L128.22 0C128.98 0 129.36 -0.38 129.36 -1.14L129.36 -40.86C129.36 -41.62 128.98 -42 128.22 -42L119.22 -42C118.46 -42 118.08 -41.62 118.08 -40.86Z M153.06 -1.17C155.54 -0.07 158.4 0.48 161.64 0.48C164.84 0.48 167.67 -0.05 170.13 -1.11C172.59 -2.17 174.5 -3.68 175.86 -5.64C177.22 -7.6 177.9 -9.88 177.9 -12.48C177.9 -15.24 177.06 -17.59 175.38 -19.53C173.7 -21.47 171.61 -22.81 169.11 -23.55C166.61 -24.29 165.2 -24.72 164.88 -24.84C162.56 -25.56 160.84 -26.15 159.72 -26.61C158.6 -27.07 157.77 -27.55 157.23 -28.05C156.69 -28.55 156.42 -29.16 156.42 -29.88C156.42 -30.8 156.79 -31.52 157.53 -32.04C158.27 -32.56 159.28 -32.82 160.56 -32.82C162.4 -32.82 163.86 -32.33 164.94 -31.35C166.02 -30.37 166.56 -29.28 166.56 -28.08L166.56 -27.6C166.56 -27.28 166.94 -27.12 167.7 -27.12L176.52 -27.12C177.28 -27.12 177.66 -27.5 177.66 -28.26L177.66 -28.56C177.66 -31.28 176.93 -33.7 175.47 -35.82C174.01 -37.94 172.01 -39.58 169.47 -40.74C166.93 -41.9 164.1 -42.48 160.98 -42.48C158.02 -42.48 155.35 -41.96 152.97 -40.92C150.59 -39.88 148.72 -38.39 147.36 -36.45C146 -34.51 145.32 -32.28 145.32 -29.76C145.32 -25.96 146.66 -23.06 149.34 -21.06C152.02 -19.06 155.34 -17.46 159.3 -16.26L161.04 -15.78C163.16 -15.14 164.62 -14.6 165.42 -14.16C166.22 -13.72 166.62 -13.06 166.62 -12.18C166.62 -11.42 166.3 -10.73 165.66 -10.11C165.02 -9.49 163.96 -9.18 162.48 -9.18C160.72 -9.18 159.26 -9.62 158.1 -10.5C156.94 -11.38 156.36 -12.36 156.36 -13.44L156.36 -14.1C156.36 -14.5 155.98 -14.7 155.22 -14.7L146.4 -14.7C145.64 -14.7 145.26 -14.32 145.26 -13.56L145.26 -12.96C145.26 -10.28 145.94 -7.92 147.3 -5.88C148.66 -3.84 150.58 -2.27 153.06 -1.17Z"></path></g></g></svg>